<svg width="103.704" height="26.263" fill="none" xmlns="http://www.w3.org/2000/svg"><path d="M0 0v25.871h3.758V7.137h.243l7.722 18.696h3.119L22.563 7.15h.243V25.87h3.758V0H21.77l-8.334 20.11h-.307L4.794 0ZM41.131 26.263c4.283 0 7.313-2.085 8.182-5.243l-3.618-.644c-.69 1.832-2.352 2.767-4.525 2.767-3.273 0-5.472-2.097-5.574-5.837h13.96v-1.339c0-7.01-4.244-9.752-8.693-9.752-5.472 0-9.077 4.118-9.077 10.08 0 6.026 3.554 9.968 9.345 9.968zM35.61 14.477c.153-2.754 2.173-5.142 5.28-5.142 2.965 0 4.908 2.173 4.921 5.142zM68.51 11.205c-.792-3.02-3.183-4.99-7.427-4.99-4.436 0-7.58 2.312-7.58 5.748 0 2.754 1.687 4.585 5.369 5.394l3.323.72c1.892.417 2.774 1.25 2.774 2.463 0 1.504-1.623 2.678-4.129 2.678-2.288 0-3.758-.972-4.218-2.88l-3.695.556c.64 3.436 3.529 5.369 7.939 5.369 4.743 0 8.028-2.489 8.028-6 0-2.742-1.764-4.435-5.369-5.256l-3.12-.707c-2.16-.505-3.093-1.225-3.08-2.54-.013-1.49 1.623-2.551 3.797-2.551 2.377 0 3.477 1.301 3.924 2.602zM82.263 6.468h-4.027V1.819h-3.823v4.649h-2.876V9.5h2.876v11.457c-.012 3.525 2.71 5.23 5.727 5.167 1.215-.013 2.033-.24 2.48-.404l-.69-3.12c-.255.05-.728.164-1.342.164-1.24 0-2.352-.405-2.352-2.59V9.5h4.027zM94.55 26.263c5.536 0 9.154-4.005 9.154-10.005 0-6.038-3.618-10.043-9.153-10.043-5.536 0-9.153 4.005-9.153 10.043 0 6 3.618 10.005 9.153 10.005zm.014-3.171c-3.618 0-5.306-3.12-5.306-6.847 0-3.714 1.688-6.872 5.306-6.872 3.592 0 5.28 3.158 5.28 6.872 0 3.727-1.688 6.847-5.28 6.847z" fill="#fff"/></svg>